<svg width="150" height="31" xmlns="http://www.w3.org/2000/svg"><g fill="#6A6F82" fill-rule="evenodd"><path d="M150 14.514v-2.647h-3.295V7.75l-.11.034-3.095.945-.061.019v3.118h-4.884V10.13c0-.81.181-1.428.538-1.841.355-.408.863-.615 1.51-.615.465 0 .947.11 1.431.325l.122.054V5.265l-.057-.021c-.452-.162-1.068-.244-1.83-.244-.96 0-1.834.209-2.596.622a4.432 4.432 0 00-1.78 1.757c-.419.751-.631 1.618-.631 2.578v1.91h-2.294v2.647h2.294v11.153h3.293V14.514h4.884v7.088c0 2.919 1.38 4.398 4.1 4.398a6.78 6.78 0 001.4-.155c.488-.105.822-.21 1.018-.322l.043-.026v-2.672l-.134.089a2.309 2.309 0 01-.662.288 2.52 2.52 0 01-.65.11c-.638 0-1.11-.171-1.402-.51-.296-.34-.446-.938-.446-1.773v-6.515H150zm-24.387 8.799c-1.195 0-2.137-.396-2.801-1.175-.669-.783-1.007-1.9-1.007-3.317 0-1.464.338-2.61 1.007-3.406.664-.791 1.598-1.193 2.775-1.193 1.142 0 2.05.383 2.702 1.14.654.762.986 1.898.986 3.379 0 1.498-.312 2.65-.928 3.42-.612.764-1.531 1.152-2.734 1.152zm.147-11.779c-2.28 0-4.092.667-5.383 1.982-1.291 1.315-1.945 3.136-1.945 5.41 0 2.161.638 3.9 1.898 5.165 1.26 1.267 2.975 1.908 5.096 1.908 2.21 0 3.986-.676 5.277-2.009 1.29-1.332 1.945-3.135 1.945-5.356 0-2.195-.614-3.946-1.825-5.204-1.211-1.258-2.915-1.896-5.063-1.896zm-12.638 0c-1.551 0-2.834.396-3.815 1.177-.986.785-1.486 1.815-1.486 3.062 0 .647.108 1.223.32 1.711.214.49.545.921.985 1.283.436.359 1.11.735 2.001 1.117.75.308 1.31.569 1.665.774.347.201.594.404.733.6.135.193.204.457.204.783 0 .927-.696 1.378-2.128 1.378-.53 0-1.136-.11-1.8-.329a6.769 6.769 0 01-1.844-.932l-.136-.098v3.164l.05.023c.466.215 1.053.396 1.746.538a9.423 9.423 0 001.864.215c1.684 0 3.04-.398 4.028-1.183.996-.79 1.5-1.845 1.5-3.135 0-.93-.271-1.728-.807-2.37-.531-.639-1.454-1.225-2.74-1.743-1.026-.41-1.683-.751-1.954-1.013-.261-.253-.394-.61-.394-1.063 0-.401.164-.723.5-.983.339-.262.81-.395 1.401-.395.55 0 1.11.087 1.669.256a5.4 5.4 0 011.457.674l.134.092v-3.001l-.051-.022c-.378-.162-.875-.3-1.48-.412a9.05 9.05 0 00-1.622-.168zM99.236 23.313c-1.195 0-2.138-.396-2.802-1.175-.668-.783-1.006-1.899-1.006-3.317 0-1.464.338-2.61 1.007-3.406.664-.791 1.597-1.193 2.774-1.193 1.142 0 2.05.383 2.702 1.14.655.762.987 1.898.987 3.379 0 1.498-.313 2.65-.929 3.42-.611.764-1.53 1.152-2.733 1.152zm.147-11.779c-2.281 0-4.093.667-5.384 1.982-1.29 1.315-1.945 3.136-1.945 5.41 0 2.162.64 3.9 1.9 5.165C95.213 25.358 96.927 26 99.048 26c2.21 0 3.986-.676 5.277-2.009 1.29-1.332 1.945-3.135 1.945-5.356 0-2.195-.614-3.946-1.825-5.204-1.212-1.258-2.916-1.896-5.063-1.896zm-12.328 2.723v-2.39h-3.253v13.8h3.253v-7.06c0-1.2.273-2.186.811-2.93.531-.737 1.24-1.11 2.104-1.11.293 0 .622.049.978.144.353.095.608.198.759.306l.136.099v-3.273l-.052-.022c-.303-.129-.732-.194-1.274-.194-.818 0-1.55.263-2.176.779-.55.453-.947 1.075-1.251 1.85h-.035zm-9.079-2.723c-1.492 0-2.823.32-3.955.95a6.4 6.4 0 00-2.61 2.676c-.594 1.143-.896 2.478-.896 3.966 0 1.304.293 2.5.871 3.555a6.114 6.114 0 002.435 2.456c1.035.573 2.231.863 3.556.863 1.546 0 2.866-.309 3.924-.917l.043-.024v-2.974l-.137.1a6.12 6.12 0 01-1.591.826c-.575.2-1.1.302-1.56.302-1.276 0-2.3-.399-3.044-1.185-.746-.786-1.123-1.891-1.123-3.281 0-1.4.394-2.533 1.17-3.369.775-.833 1.802-1.256 3.052-1.256 1.069 0 2.11.361 3.096 1.075l.137.098v-3.133l-.044-.025c-.371-.207-.877-.378-1.505-.508a9.008 9.008 0 00-1.819-.195zm-9.701.333h-3.253v13.8h3.253v-13.8zm-1.593-5.879c-.536 0-1.003.182-1.386.542a1.787 1.787 0 00-.581 1.354c0 .529.193.975.575 1.327.379.351.847.529 1.392.529a2.01 2.01 0 001.398-.528 1.73 1.73 0 00.582-1.328c0-.518-.19-.969-.566-1.339-.375-.37-.851-.557-1.414-.557zm-8.117 4.86v14.819h3.32V6.41H57.29l-5.84 14.302L45.782 6.41H41v19.256h3.12v-14.82h.107l5.985 14.82h2.354l5.892-14.818h.107z" fill-rule="nonzero"/><path d="M15 14H0V0h15zm17 0H17V0h15zM15 31H0V17h15zm17 0H17V17h15z"/></g></svg>