<svg width="72" height="72" xmlns="http://www.w3.org/2000/svg"><defs><filter x="-63.9%" y="-63.9%" width="227.8%" height="227.8%" filterUnits="objectBoundingBox" id="a"><feOffset dy="8" in="SourceAlpha" result="shadowOffsetOuter1"/><feGaussianBlur stdDeviation="8" in="shadowOffsetOuter1" result="shadowBlurOuter1"/><feColorMatrix values="0 0 0 0 0.0862745098 0 0 0 0 0.0901960784 0 0 0 0 0.105882353 0 0 0 0.32 0" in="shadowBlurOuter1" result="shadowMatrixOuter1"/><feMerge><feMergeNode in="shadowMatrixOuter1"/><feMergeNode in="SourceGraphic"/></feMerge></filter></defs><g filter="url(#a)" fill="#FFF"><path d="M48 36a2.99 2.99 0 00-2-2.816v-3.368A2.993 2.993 0 1042.184 26h-3.368a2.982 2.982 0 00-5.632 0h-3.368A2.993 2.993 0 1026 29.816v3.368a2.982 2.982 0 000 5.632v3.368A2.993 2.993 0 1029.816 46h3.368a2.982 2.982 0 005.632 0h3.368A2.993 2.993 0 1046 42.184v-3.368A2.99 2.99 0 0048 36zm-4 2.816v3.368c-.848.3-1.515.968-1.816 1.816h-3.368a2.982 2.982 0 00-5.632 0h-3.368A2.987 2.987 0 0028 42.184v-3.368a2.982 2.982 0 000-5.632v-3.368A2.987 2.987 0 0029.816 28h3.368a2.982 2.982 0 005.632 0h3.368c.3.848.968 1.515 1.816 1.816v3.368a2.982 2.982 0 000 5.632z"/><circle opacity=".64" cx="36" cy="36" r="3"/></g></svg>