<svg width="72" height="72" xmlns="http://www.w3.org/2000/svg"><defs><filter x="-63.9%" y="-63.9%" width="227.8%" height="227.8%" filterUnits="objectBoundingBox" id="a"><feOffset dy="8" in="SourceAlpha" result="shadowOffsetOuter1"/><feGaussianBlur stdDeviation="8" in="shadowOffsetOuter1" result="shadowBlurOuter1"/><feColorMatrix values="0 0 0 0 0.0862745098 0 0 0 0 0.0901960784 0 0 0 0 0.105882353 0 0 0 0.32 0" in="shadowBlurOuter1" result="shadowMatrixOuter1"/><feMerge><feMergeNode in="shadowMatrixOuter1"/><feMergeNode in="SourceGraphic"/></feMerge></filter></defs><g filter="url(#a)" fill="#FFF"><path d="M33 34h-7a1 1 0 01-1-1v-7a1 1 0 011-1h7a1 1 0 011 1v7a1 1 0 01-1 1zm0 13h-7a1 1 0 01-1-1v-7a1 1 0 011-1h7a1 1 0 011 1v7a1 1 0 01-1 1zm4-21h10v2H37z"/><path opacity=".64" d="M37 31h10v2H37zm0 8h10v2H37z"/><path d="M37 44h10v2H37z"/></g></svg>