<svg width="712" height="400" xmlns="http://www.w3.org/2000/svg" xmlns:xlink="http://www.w3.org/1999/xlink"><defs><linearGradient x1="50%" y1="0%" x2="50%" y2="100%" id="e"><stop stop-color="#FFF" stop-opacity=".32" offset="0%"/><stop stop-color="#FFF" stop-opacity="0" offset="100%"/></linearGradient><linearGradient x1="77.999%" y1="9.763%" x2="24.434%" y2="90.469%" id="h"><stop stop-color="#12141D" stop-opacity=".72" offset="0%"/><stop stop-color="#12141D" offset="100%"/></linearGradient><filter x="-70%" y="-50%" width="240%" height="240%" filterUnits="objectBoundingBox" id="f"><feOffset dy="16" in="SourceAlpha" result="shadowOffsetOuter1"/><feGaussianBlur stdDeviation="16" in="shadowOffsetOuter1" result="shadowBlurOuter1"/><feColorMatrix values="0 0 0 0 0.0862745098 0 0 0 0 0.0901960784 0 0 0 0 0.105882353 0 0 0 0.24 0" in="shadowBlurOuter1"/></filter><filter x="-466.7%" y="-250%" width="1033.3%" height="800%" filterUnits="objectBoundingBox" id="i"><feOffset dy="16" in="SourceAlpha" result="shadowOffsetOuter1"/><feGaussianBlur stdDeviation="16" in="shadowOffsetOuter1" result="shadowBlurOuter1"/><feColorMatrix values="0 0 0 0 0.062745098 0 0 0 0 0.0862745098 0 0 0 0 0.254901961 0 0 0 0.24 0" in="shadowBlurOuter1"/></filter><rect id="a" x="0" y="0" width="712" height="400" rx="2"/><rect id="b" x="0" y="0" width="712" height="400" rx="2"/><radialGradient cx="14.004%" cy="20.714%" fx="14.004%" fy="20.714%" r="204.167%" gradientTransform="matrix(.4898 .4898 -.1074 .34029 .094 .068)" id="c"><stop stop-color="#376DF9" offset="0%"/><stop stop-color="#FF5FA6" offset="61.018%"/><stop stop-color="#FFC55A" stop-opacity="0" offset="100%"/></radialGradient><circle id="g" cx="40" cy="40" r="40"/><path d="M48 40a.999.999 0 00-.427-.82l-10-7A1 1 0 0036 33v14a.999.999 0 001.573.82l10-7A.995.995 0 0048 40c0 .001 0 .001 0 0z" id="j"/></defs><g fill="none" fill-rule="evenodd"><use fill="#292B32" xlink:href="#a"/><mask id="d" fill="#fff"><use xlink:href="#b"/></mask><use fill="url(#c)" xlink:href="#b"/><g mask="url(#d)" stroke="url(#e)" stroke-width="1.5"><path d="M332.302 106c42.692 0 77.302 34.609 77.302 77.302 0 42.693-34.61 77.302-77.302 77.302-42.693 0-77.302-34.609-77.302-77.302C255 140.609 289.609 106 332.302 106z"/><path d="M336.986 109.306c42.692 0 77.302 34.609 77.302 77.302 0 42.693-34.61 77.302-77.302 77.302-42.693 0-77.302-34.61-77.302-77.302 0-42.693 34.61-77.302 77.302-77.302z"/><path d="M341.672 112.614c42.693 0 77.302 34.609 77.302 77.302 0 42.693-34.61 77.302-77.302 77.302-42.692 0-77.302-34.61-77.302-77.302 0-42.693 34.61-77.302 77.302-77.302z"/><path d="M346.356 115.92c42.693 0 77.302 34.609 77.302 77.302 0 42.693-34.61 77.302-77.302 77.302-42.692 0-77.302-34.61-77.302-77.302 0-42.693 34.61-77.302 77.302-77.302z"/><path d="M351.042 119.228c42.692 0 77.302 34.609 77.302 77.302 0 42.693-34.61 77.302-77.302 77.302-42.692 0-77.302-34.609-77.302-77.302 0-42.693 34.61-77.302 77.302-77.302z"/><path d="M355.726 122.534c42.693 0 77.302 34.609 77.302 77.302 0 42.693-34.61 77.302-77.302 77.302-42.693 0-77.302-34.61-77.302-77.302 0-42.693 34.609-77.302 77.302-77.302z"/><path d="M360.412 125.842c42.692 0 77.302 34.609 77.302 77.302 0 42.693-34.61 77.302-77.302 77.302-42.693 0-77.302-34.61-77.302-77.302 0-42.693 34.609-77.302 77.302-77.302z"/><path d="M365.096 129.148c42.693 0 77.302 34.609 77.302 77.302 0 42.693-34.609 77.302-77.302 77.302-42.693 0-77.302-34.609-77.302-77.302 0-42.693 34.609-77.302 77.302-77.302z"/><path d="M369.782 132.456c42.692 0 77.302 34.61 77.302 77.302 0 42.693-34.61 77.302-77.302 77.302-42.693 0-77.302-34.609-77.302-77.302 0-42.693 34.609-77.302 77.302-77.302z"/><path d="M374.466 135.762c42.693 0 77.302 34.609 77.302 77.302 0 42.693-34.609 77.302-77.302 77.302-42.693 0-77.302-34.61-77.302-77.302 0-42.693 34.61-77.302 77.302-77.302z"/><path d="M379.152 139.07c42.692 0 77.302 34.609 77.302 77.302 0 42.693-34.61 77.302-77.302 77.302-42.693 0-77.302-34.61-77.302-77.302 0-42.693 34.61-77.302 77.302-77.302z"/></g><g transform="translate(316 160)"><use fill="#000" filter="url(#f)" xlink:href="#g"/><use fill="url(#h)" xlink:href="#g"/></g><g transform="translate(316 160)"><use fill="#000" filter="url(#i)" xlink:href="#j"/><use fill="#6991FA" xlink:href="#j"/></g></g></svg>