<svg width="124" height="24" xmlns="http://www.w3.org/2000/svg"><path d="M63.849 11.694c-1.023 0-1.76.326-2.507.657v7.507c.716.066 1.126.066 1.805.066 2.454 0 2.79-1.092 2.79-2.616v-3.585c0-1.125-.384-2.029-2.088-2.029zm-16.295-.41c-1.702 0-2.09.908-2.09 2.033v.631h4.179v-.631c0-1.125-.389-2.033-2.089-2.033zm-31.566 7.813c0 .89.432 1.352 1.386 1.352 1.022 0 1.628-.324 2.375-.657v-1.78h-2.237c-1.059 0-1.524.19-1.524 1.085zM79.7 11.694c-1.705 0-2.296.904-2.296 2.03v4.106c0 1.129.59 2.035 2.296 2.035 1.7 0 2.296-.906 2.296-2.035v-4.107c0-1.125-.596-2.029-2.296-2.029zM7.632 23.702H2.619V11.917H.115v-4.06H2.62v-2.44C2.62 2.104 4.033.134 8.05.134h3.345v4.062h-2.09c-1.565 0-1.668.568-1.668 1.627l-.006 2.033h3.787l-.443 4.06H7.632v11.786zm17.13.031h-4.177l-.18-1.026a9.802 9.802 0 01-4.734 1.192c-3.063 0-4.694-1.988-4.694-4.737 0-3.244 1.903-4.402 5.307-4.402h3.465v-.701c0-1.656-.196-2.142-2.817-2.142h-4.286l.419-4.06h4.685c5.751 0 7.012 1.764 7.012 6.235v9.641zm14.206-11.518c-2.6-.433-3.346-.528-4.597-.528-2.246 0-2.925.481-2.925 2.335v3.506c0 1.853.679 2.337 2.925 2.337 1.251 0 1.998-.097 4.597-.532v3.961c-2.277.496-3.76.627-5.014.627-5.381 0-7.52-2.75-7.52-6.72v-2.845c0-3.975 2.139-6.729 7.52-6.729 1.254 0 2.737.13 5.014.629v3.959zM54.654 17.2h-9.191v.328c0 1.853.68 2.337 2.925 2.337 2.02 0 3.252-.097 5.847-.532v3.961c-2.503.496-3.807.627-6.262.627-5.382 0-7.522-2.75-7.522-6.72v-3.253c0-3.475 1.587-6.32 7.102-6.32 5.515 0 7.101 2.812 7.101 6.32V17.2zm16.294.076c0 3.838-1.129 6.637-7.97 6.637-2.471 0-3.92-.21-6.647-.618V1.355l5.01-.813v7.675c1.084-.39 2.485-.59 3.76-.59 5.012 0 5.847 2.183 5.847 5.69v3.959zm16.063.083c0 3.311-1.407 6.523-7.295 6.523-5.891 0-7.325-3.212-7.325-6.523v-3.197c0-3.313 1.434-6.525 7.325-6.525 5.888 0 7.295 3.212 7.295 6.525v3.197zm16.052 0c0 3.311-1.41 6.523-7.296 6.523-5.891 0-7.325-3.212-7.325-6.523v-3.197c0-3.313 1.434-6.525 7.325-6.525 5.887 0 7.296 3.212 7.296 6.525v3.197zm16.472 6.343h-5.431l-4.594-7.448v7.448h-5.012V1.354l5.012-.812v14.387l4.594-7.073h5.431l-5.014 7.719 5.014 8.127zM95.75 11.694c-1.703 0-2.294.904-2.294 2.03v4.106c0 1.129.591 2.035 2.294 2.035 1.7 0 2.301-.906 2.301-2.035v-4.107c0-1.125-.601-2.029-2.301-2.029zm26.646 9.229c.844 0 1.516.668 1.516 1.503 0 .848-.672 1.51-1.522 1.51a1.511 1.511 0 01-1.532-1.51c0-.835.686-1.503 1.532-1.503h.006zm-.006.234c-.68 0-1.237.568-1.237 1.27 0 .713.557 1.274 1.243 1.274.687.007 1.235-.56 1.235-1.268s-.548-1.276-1.235-1.276h-.006zm-.288 2.144h-.275v-1.677c.144-.02.282-.04.488-.04.261 0 .432.054.537.127.101.074.156.187.156.347 0 .221-.15.354-.336.408v.013c.151.027.254.16.289.406.04.261.082.361.108.416h-.288c-.04-.055-.082-.208-.117-.429-.04-.213-.15-.293-.37-.293h-.192v.722zm0-.928h.2c.225 0 .417-.081.417-.289 0-.147-.11-.293-.418-.293-.09 0-.152.007-.2.013v.569z" fill="#6A6F82"/></svg>