<svg width="113" height="30" xmlns="http://www.w3.org/2000/svg"><g fill="#6A6F82"><path d="M0 5h3.94v8.21h8.31V5h3.946v20.153H12.25V16.77H3.94v8.383H0V5zm28.678 13.589c0 1.687-1.465 3.06-3.264 3.06-1.799 0-3.264-1.373-3.264-3.06V9.912h-3.736v8.677c0 3.62 3.14 6.564 7 6.564s7-2.945 7-6.564V9.912h-3.736v8.677zm14.167-8.575c-1.854 0-3.147.504-4.397 1.655V5H34.7v12.359c0 4.626 3.567 7.794 7.573 7.794 4.454 0 8.357-3.225 8.357-7.57 0-4.29-3.599-7.57-7.784-7.57zm.093 11.886c-2.54 0-4.483-1.99-4.483-4.317s1.943-4.317 4.483-4.317c2.152 0 4.096 1.99 4.096 4.317S45.09 21.9 42.938 21.9zm13.987-11c0-1.768 1.256-2.328 2.63-2.328 1.107 0 2.572.785 3.527 1.738l2.451-2.69c-1.225-1.543-3.705-2.608-5.738-2.608-4.066 0-6.995 2.215-6.995 5.888 0 6.812 8.938 4.652 8.938 8.466 0 1.176-1.225 2.214-2.63 2.214-2.212 0-2.93-1.009-3.946-2.074l-2.72 2.634c1.734 1.991 3.886 3 6.457 3 3.856 0 6.964-2.242 6.964-5.747 0-7.569-8.938-5.214-8.938-8.493zm18.808-1.084c-4.007 0-7.573 3.167-7.573 7.794V30h3.748v-6.7c1.25 1.15 2.543 1.655 4.397 1.655 4.185 0 7.785-3.28 7.785-7.57 0-4.345-3.904-7.569-8.357-7.569zm.666 11.887c-2.54 0-4.483-1.992-4.483-4.318 0-2.327 1.943-4.317 4.483-4.317 2.152 0 4.095 1.99 4.095 4.317 0 2.326-1.943 4.318-4.095 4.318zm35.285.197c-2.211 0-2.84-.897-2.84-2.27v-6.084h3.438v-3.083h-3.437V6.397l-3.795 1.598v12.391c0 3.168 2.33 4.767 5.527 4.767.479 0 1.137-.03 1.496-.112l.927-3.196c-.418.027-.897.055-1.316.055z"/><path d="M100.964 13.775c-.714-1.105-1.718-1.99-2.974-2.658a8.595 8.595 0 00-3.009-.937V6.67c1.097-.42 1.778-1.346 1.778-2.428 0-1.474-1.315-2.668-2.952-2.668-1.639 0-2.976 1.194-2.976 2.668 0 1.082.641 2.009 1.738 2.428v3.513a9.297 9.297 0 00-2.618.738c-1.697-1.16-7.262-4.962-10.517-7.183.078-.25.137-.509.137-.781C79.57 1.323 78.1 0 76.285 0S73 1.323 73 2.956c0 1.632 1.47 2.956 3.287 2.956a3.53 3.53 0 001.686-.43l.687.468 9.44 6.117c-.5.412-.964.88-1.336 1.407-.753 1.072-1.214 2.252-1.214 3.538v.269c0 .903.191 1.756.516 2.557a6.56 6.56 0 001.223 1.91l-3.133 2.825c-.927-.31-1.97-.104-2.668.527a2.16 2.16 0 00-.743 1.615c0 .61.264 1.184.744 1.615a2.67 2.67 0 001.796.67 2.674 2.674 0 001.797-.67 2.16 2.16 0 00.743-1.615c0-.236-.04-.466-.117-.685l3.238-2.913c.444.276.924.508 1.44.708a9.221 9.221 0 003.366.637h.225a8.651 8.651 0 003.842-.874c1.269-.62 2.262-1.468 3.012-2.55.754-1.086 1.169-2.285 1.169-3.604v-.066c0-1.298-.334-2.496-1.036-3.593zm-3.956 6.11c-.879.879-1.89 1.42-3.031 1.42h-.188c-.653 0-1.29-.162-1.915-.457a4.292 4.292 0 01-1.678-1.374c-.452-.576-.698-1.205-.698-1.87V17.4c0-.655.14-1.277.492-1.863A4.23 4.23 0 0191.552 14a4.133 4.133 0 012.163-.587h.074c.716 0 1.394.127 2.034.422a4.181 4.181 0 011.598 1.307c.401.565.64 1.174.717 1.837.012.138.018.28.018.414 0 .9-.383 1.735-1.148 2.492z"/></g></svg>