<svg width="72" height="72" xmlns="http://www.w3.org/2000/svg"><defs><filter x="-63.9%" y="-63.9%" width="227.8%" height="227.8%" filterUnits="objectBoundingBox" id="a"><feOffset dy="8" in="SourceAlpha" result="shadowOffsetOuter1"/><feGaussianBlur stdDeviation="8" in="shadowOffsetOuter1" result="shadowBlurOuter1"/><feColorMatrix values="0 0 0 0 0.0862745098 0 0 0 0 0.0901960784 0 0 0 0 0.105882353 0 0 0 0.32 0" in="shadowBlurOuter1" result="shadowMatrixOuter1"/><feMerge><feMergeNode in="shadowMatrixOuter1"/><feMergeNode in="SourceGraphic"/></feMerge></filter></defs><g filter="url(#a)" fill="#FFF"><path d="M35.406 24.132l-10.82 5.055a.42.42 0 00.001.764l10.905 5.018c.322.148.694.148 1.016 0l10.905-5.018a.42.42 0 00.002-.764l-10.821-5.055a1.403 1.403 0 00-1.188 0z"/><path d="M47.415 35.676l-2.235-1.044a1.216 1.216 0 00-1.023-.003l-7.649 3.52a1.216 1.216 0 01-1.016 0l-7.65-3.52a1.216 1.216 0 00-1.022.003l-2.235 1.044a.42.42 0 00.002.764l10.905 5.017a1.21 1.21 0 001.016 0l10.905-5.017a.42.42 0 00.002-.764z" opacity=".64"/><path d="M47.415 42.108l-2.235-1.044a1.216 1.216 0 00-1.023-.003l-7.649 3.519a1.216 1.216 0 01-1.016 0l-7.65-3.52a1.216 1.216 0 00-1.022.003l-2.235 1.045a.42.42 0 00.002.763l10.905 5.018c.322.148.694.148 1.016 0l10.905-5.018a.42.42 0 00.002-.763z"/></g></svg>